<svg xmlns="http://www.w3.org/2000/svg" width="1024" height="1024"><g transform="translate(0 14.496)"><rect width="407.532" height="73.876" x="308.234" y="331.896" ry="23.967" style="fill:#bdbdbd;fill-opacity:1;stroke:#212121;stroke-width:19.224;stroke-linecap:round;stroke-linejoin:round;stroke-dasharray:none;stroke-opacity:1;stop-color:#000"/><path d="M512 259.238c-99.445-.214-135.782 72.788-136.924 117.556-.675 26.472-1.343 49.321-1.354 72.163 0 0-138.884 45.798-135.029 102.429 3.584 52.646 100.437 50.993 100.406 50.438-9.293 21.395-128.034 226.388-70.232 226.938 99.865.949 115.22-.085 148.14-.511 32.123-.415 72.219-105.464 94.993-104.57 22.774-.894 62.87 104.155 94.992 104.57 32.92.426 48.276 1.46 148.141.51 57.802-.549-60.939-205.542-70.232-226.937-.031.555 96.822 2.208 100.406-50.438 3.855-56.631-135.028-102.43-135.028-102.43-.012-22.84-.68-45.69-1.355-72.162-1.142-44.768-37.479-117.77-136.924-117.556" class="UnoptimicedTransforms" style="display:inline;fill:#e0e0e0;fill-opacity:1;stroke:#212121;stroke-width:24;stroke-linecap:butt;stroke-linejoin:round;stroke-dasharray:none;stroke-opacity:1" transform="translate(-103.168 -100.247)scale(1.2015)"/><circle cx="440.265" cy="349.259" r="36.229" style="fill:#212121;fill-opacity:1;stroke:none;stroke-width:13.5169;stroke-linecap:round;stroke-linejoin:round;stroke-dasharray:none;stroke-opacity:1;stop-color:#000"/><circle cx="583.838" cy="349.259" r="36.229" style="fill:#212121;fill-opacity:1;stroke:none;stroke-width:13.5169;stroke-linecap:round;stroke-linejoin:round;stroke-dasharray:none;stroke-opacity:1;stop-color:#000"/><path d="M446.736 441.068S471.33 458.045 512 457.135c40.67.91 65.264-16.067 65.264-16.067" class="UnoptimicedTransforms" style="fill:none;fill-opacity:1;stroke:#212121;stroke-width:16;stroke-linecap:round;stroke-linejoin:round;stroke-dasharray:none;stroke-opacity:1" transform="translate(-103.168 -107.456)scale(1.2015)"/><rect width="293.009" height="145.002" x="365.495" y="518.68" ry="38.139" style="fill:#9e9e9e;fill-opacity:1;stroke:#212121;stroke-width:28.6221;stroke-linecap:round;stroke-linejoin:round;stroke-dasharray:none;stroke-opacity:1;stop-color:#000"/><circle cx="428.78" cy="591.181" r="29.093" style="fill:#455a64;fill-opacity:1;stroke:#212121;stroke-width:19.224;stroke-linecap:round;stroke-linejoin:round;stroke-dasharray:none;stroke-opacity:1;stop-color:#000"/><path d="M487.02 590.681h18.545l15.322-31.252 24.249 63.37 24.14-63.371 22.78 63.506 14.803-32.253h15.607" style="fill:none;stroke:#212121;stroke-width:19.224;stroke-linecap:round;stroke-linejoin:round;stroke-dasharray:none;stroke-opacity:1"/><ellipse cx="512" cy="128.694" rx="31.224" ry="31.856" style="fill:#bdbdbd;fill-opacity:1;stroke:#212121;stroke-width:24.4478;stroke-linecap:round;stroke-linejoin:round;stroke-dasharray:none;stroke-opacity:1;stop-color:#000"/><rect width="25.482" height="59.477" x="499.259" y="160.55" ry="8.326" style="fill:#212121;fill-opacity:1;stroke:none;stroke-width:25.8168;stroke-linecap:round;stroke-linejoin:round;stroke-dasharray:none;stroke-opacity:1;stop-color:#000"/></g></svg>
