<svg xmlns="http://www.w3.org/2000/svg" viewBox="16 64 944 944"><path d="M480 80.43a31.224 31.856 0 0 0-31.225 31.856 31.224 31.856 0 0 0 18.485 28.893v54.113l.002.02c-96.115 5.105-139.27 69.429-149.367 120.177H300.2a23.914 23.914 0 0 0-23.967 23.967v25.941a23.914 23.914 0 0 0 23.967 23.967h14.069c-.209 11.269-.407 22.415-.413 33.402 0 0-166.868 55.028-162.236 123.069 4.306 63.254 120.676 61.269 120.639 60.601-11.166 25.706-153.833 272.006-84.385 272.666 119.986 1.14 138.439-.101 177.992-.613 38.595-.499 86.77-126.715 114.133-125.64 27.363-1.075 75.538 125.141 114.133 125.64 39.553.512 58.006 1.754 177.992.613 69.448-.66-73.219-246.96-84.385-272.666-.037.668 116.333 2.653 120.639-60.601 4.632-68.041-162.236-123.069-162.236-123.069-.006-10.987-.204-22.133-.413-33.402H659.8a23.914 23.914 0 0 0 23.967-23.967v-25.941a23.914 23.914 0 0 0-23.967-23.967h-17.694c-10.097-50.748-53.252-115.072-149.367-120.178l.002-.02V141.18a31.224 31.856 0 0 0 18.485-28.893A31.224 31.856 0 0 0 480 80.431m-71.734 216.192a36.23 36.23 0 0 1 36.228 36.228 36.23 36.23 0 0 1-36.228 36.229 36.23 36.23 0 0 1-36.23-36.229 36.23 36.23 0 0 1 36.23-36.228m143.572 0a36.23 36.23 0 0 1 36.228 36.228 36.23 36.23 0 0 1-36.228 36.229 36.23 36.23 0 0 1-36.229-36.229 36.23 36.23 0 0 1 36.229-36.228m-149.479 99.875a9.6 9.6 0 0 1 4.688 1.672s26.631 18.638 72.736 17.605a10 10 0 0 1 .434 0c46.105 1.033 72.736-17.605 72.736-17.605a9.6 9.6 0 0 1 4.688-1.67 9.61 9.61 0 0 1 8.683 4.119 9.61 9.61 0 0 1-2.449 13.373s-32.383 22.08-83.875 20.994c-51.493 1.086-83.875-20.994-83.875-20.994a9.61 9.61 0 0 1-2.45-13.373 9.6 9.6 0 0 1 6.178-3.994 9.6 9.6 0 0 1 2.506-.127m-30.724 91.465h216.73c28.81 0 52.451 23.641 52.451 52.451v68.723c0 28.81-23.641 52.45-52.45 52.45H371.634c-28.81 0-52.451-23.64-52.451-52.45v-68.723c0-28.81 23.641-52.451 52.45-52.451m0 28.623c-13.448 0-23.828 10.38-23.828 23.828v68.723c0 13.448 10.38 23.828 23.828 23.828h216.73c13.448 0 23.828-10.38 23.828-23.828v-68.723c0-13.448-10.38-23.828-23.828-23.828zm116.449 16.86a9.61 9.61 0 0 1 9.781 6.14l15.25 39.855 15.178-39.842a9.613 9.613 0 0 1 18.031.176l14.824 41.328 4.975-10.837a9.61 9.61 0 0 1 8.736-5.604h15.608a9.61 9.61 0 0 1 9.611 9.613 9.61 9.61 0 0 1-9.611 9.612h-9.444l-12.23 26.65a9.613 9.613 0 0 1-17.783-.764l-14.004-39.04-14.889 39.081a9.613 9.613 0 0 1-17.959.014l-16.36-42.752-5.603 11.43a9.61 9.61 0 0 1-8.63 5.38H455.02a9.61 9.61 0 0 1-9.613-9.61 9.61 9.61 0 0 1 9.613-9.614h12.551l12.684-25.871a9.61 9.61 0 0 1 5.412-4.824 9.6 9.6 0 0 1 2.416-.522m-91.305 2.624c21.263 0 38.705 17.443 38.705 38.705 0 21.263-17.442 38.705-38.705 38.705s-38.705-17.442-38.705-38.705 17.443-38.705 38.705-38.705m0 19.223c-10.873 0-19.48 8.61-19.48 19.482s8.607 19.48 19.48 19.48 19.48-8.607 19.48-19.48-8.607-19.482-19.48-19.482" fill="currentColor"/></svg>
